<svg xmlns="http://www.w3.org/2000/svg" xmlns:xlink="http://www.w3.org/1999/xlink" viewBox="0 0 41.13 41.42"><defs><style>.cls-1{fill:#141e3d;}.cls-2{fill:url(#未命名的渐变_13);}.cls-3{fill:url(#未命名的渐变_2);}.cls-4{fill:url(#未命名的渐变_3);}.cls-5{fill:url(#未命名的渐变_4);}.cls-6{fill:url(#未命名的渐变_5);}.cls-7{fill:url(#未命名的渐变_6);}.cls-8{fill:url(#未命名的渐变_7);}.cls-9{fill:url(#未命名的渐变_8);}.cls-10{fill:url(#未命名的渐变_9);}.cls-11{fill:url(#未命名的渐变_10);}.cls-12{fill:url(#未命名的渐变_11);}.cls-13{fill:url(#未命名的渐变_12);}.cls-14{fill:#fff;}</style><linearGradient id="未命名的渐变_13" x1="19.13" y1="1333.44" x2="13.11" y2="1327.73" gradientTransform="matrix(1, 0, 0, -1, 0, 1344.52)" gradientUnits="userSpaceOnUse"><stop offset="0.05" stop-color="#fff"/><stop offset="0.47" stop-color="#9b8278"/><stop offset="0.62" stop-color="#736264"/><stop offset="0.82" stop-color="#413a4c"/><stop offset="0.93" stop-color="#2d2a42"/></linearGradient><linearGradient id="未命名的渐变_2" x1="32.93" y1="1326.25" x2="26.9" y2="1319.81" gradientTransform="matrix(1, 0, 0, -1, 0, 1344.52)" gradientUnits="userSpaceOnUse"><stop offset="0.15" stop-color="#f7f7f7"/><stop offset="0.49" stop-color="#9b8278"/><stop offset="0.56" stop-color="#8a7470"/><stop offset="0.75" stop-color="#584c57"/><stop offset="0.9" stop-color="#393348"/><stop offset="0.99" stop-color="#2d2a42"/></linearGradient><linearGradient id="未命名的渐变_3" x1="24.59" y1="1332.24" x2="16.27" y2="1334.29" gradientTransform="matrix(1, 0, 0, -1, 0, 1344.52)" gradientUnits="userSpaceOnUse"><stop offset="0.17" stop-color="#f7f7f7"/><stop offset="0.55" stop-color="#9b8278"/><stop offset="0.81" stop-color="#554a56"/><stop offset="0.99" stop-color="#2d2a42"/></linearGradient><linearGradient id="未命名的渐变_4" x1="23.76" y1="1317.02" x2="15.65" y2="1318.78" gradientTransform="matrix(1, 0, 0, -1, 0, 1344.52)" gradientUnits="userSpaceOnUse"><stop offset="0.09" stop-color="#f7f7f7"/><stop offset="0.42" stop-color="#9b8278"/><stop offset="0.56" stop-color="#736264"/><stop offset="0.76" stop-color="#413a4c"/><stop offset="0.86" stop-color="#2d2a42"/></linearGradient><linearGradient id="未命名的渐变_5" x1="17.14" y1="1340.72" x2="25.52" y2="1338.56" gradientTransform="matrix(1, 0, 0, -1, 0, 1344.52)" gradientUnits="userSpaceOnUse"><stop offset="0.16" stop-color="#f7f7f7"/><stop offset="0.17" stop-color="#f3f2f2"/><stop offset="0.31" stop-color="#c4b6b0"/><stop offset="0.42" stop-color="#a69088"/><stop offset="0.47" stop-color="#9b8278"/><stop offset="0.68" stop-color="#63555c"/><stop offset="0.87" stop-color="#2d2a42"/></linearGradient><linearGradient id="未命名的渐变_6" x1="25.73" y1="1326.71" x2="22.92" y2="1335.18" gradientTransform="matrix(1, 0, 0, -1, 0, 1344.52)" gradientUnits="userSpaceOnUse"><stop offset="0.12" stop-color="#f7f7f7"/><stop offset="0.51" stop-color="#9b8278"/><stop offset="0.99" stop-color="#2d2a42"/></linearGradient><linearGradient id="未命名的渐变_7" x1="12.08" y1="1319.42" x2="9.86" y2="1327.79" gradientTransform="matrix(1, 0, 0, -1, 0, 1344.52)" gradientUnits="userSpaceOnUse"><stop offset="0.16" stop-color="#f7f7f7"/><stop offset="0.51" stop-color="#9b8278"/><stop offset="0.65" stop-color="#736264"/><stop offset="0.86" stop-color="#413a4c"/><stop offset="0.96" stop-color="#2d2a42"/></linearGradient><linearGradient id="未命名的渐变_8" x1="21.71" y1="1323.81" x2="27.31" y2="1329.74" gradientTransform="matrix(1, 0, 0, -1, 0, 1344.52)" gradientUnits="userSpaceOnUse"><stop offset="0.12" stop-color="#f7f7f7"/><stop offset="0.54" stop-color="#9b8278"/><stop offset="0.93" stop-color="#2d2a42"/></linearGradient><linearGradient id="未命名的渐变_9" x1="8.44" y1="1331.7" x2="14.56" y2="1337.92" gradientTransform="matrix(1, 0, 0, -1, 0, 1344.52)" gradientUnits="userSpaceOnUse"><stop offset="0.08" stop-color="#f7f7f7"/><stop offset="0.45" stop-color="#9b8278"/><stop offset="0.66" stop-color="#61545c"/><stop offset="0.81" stop-color="#3b3649"/><stop offset="0.9" stop-color="#2d2a42"/></linearGradient><linearGradient id="未命名的渐变_10" x1="15.73" y1="1330.05" x2="18.12" y2="1322.1" gradientTransform="matrix(1, 0, 0, -1, 0, 1344.52)" gradientUnits="userSpaceOnUse"><stop offset="0.11" stop-color="#f7f7f7"/><stop offset="0.43" stop-color="#9b8278"/><stop offset="0.61" stop-color="#736264"/><stop offset="0.85" stop-color="#413a4c"/><stop offset="0.97" stop-color="#2d2a42"/></linearGradient><linearGradient id="未命名的渐变_11" x1="29.12" y1="1338.42" x2="30.94" y2="1329.18" gradientTransform="matrix(1, 0, 0, -1, 0, 1344.52)" gradientUnits="userSpaceOnUse"><stop offset="0.21" stop-color="#f7f7f7"/><stop offset="0.5" stop-color="#9b8278"/><stop offset="0.71" stop-color="#61535b"/><stop offset="0.87" stop-color="#3b3549"/><stop offset="0.95" stop-color="#2d2a42"/></linearGradient><linearGradient id="未命名的渐变_12" x1="16.81" y1="1325.28" x2="25.14" y2="1323.52" gradientTransform="matrix(1, 0, 0, -1, 0, 1344.52)" gradientUnits="userSpaceOnUse"><stop offset="0.13" stop-color="#f7f7f7"/><stop offset="0.47" stop-color="#9b8278"/><stop offset="0.56" stop-color="#836f6c"/><stop offset="0.76" stop-color="#554a55"/><stop offset="0.91" stop-color="#383347"/><stop offset="1" stop-color="#2d2a42"/></linearGradient></defs><g id="图层_2" data-name="图层 2"><g id="图层_1-2" data-name="图层 1"><circle class="cls-1" cx="20.56" cy="15.7" r="15.7"/><polygon class="cls-2" points="20.56 15.7 16.1 7.97 11.64 15.7 20.56 15.7"/><polygon class="cls-3" points="33.95 23.43 29.49 15.7 25.03 23.43 33.95 23.43"/><polygon class="cls-4" points="20.56 15.7 25.03 7.97 16.1 7.97 20.56 15.7"/><polygon class="cls-5" points="20.56 31.16 25.03 23.43 16.1 23.43 20.56 31.16"/><polygon class="cls-6" points="20.57 0.24 16.1 7.97 25.03 7.97 20.57 0.24"/><polygon class="cls-7" points="25.03 7.97 20.57 15.7 29.49 15.7 25.03 7.97"/><polygon class="cls-8" points="11.64 15.7 7.18 23.43 16.1 23.43 11.64 15.7"/><polygon class="cls-9" points="20.57 15.7 25.03 23.43 29.49 15.7 20.57 15.7"/><polygon class="cls-10" points="7.18 7.97 11.64 15.7 16.1 7.97 7.18 7.97"/><polygon class="cls-11" points="20.56 15.7 11.64 15.7 16.1 23.43 20.56 15.7"/><polygon class="cls-12" points="33.95 7.97 25.03 7.97 29.49 15.7 33.95 7.97"/><polygon class="cls-13" points="20.56 15.7 16.1 23.43 25.03 23.43 20.56 15.7"/><path class="cls-14" d="M21.24,36.66l2.05-.2v3.22s0,.83,0,1c.11.43.62.5,1,.55v.12H21.17v-.12a3,3,0,0,0,.6-.12c.5-.16.45-1.09.45-1.41V38.27c.09-1.54-.69-1.43-1-1.49Zm1.48-2.2c-.22,0-.67-.15-.64-.5s.49-.48.64-.48c.43,0,.65.28.65.48C23.36,34.37,22.93,34.45,22.72,34.46Z"/><path class="cls-14" d="M31.86,36.47a3.61,3.61,0,0,1,.16.78,3.5,3.5,0,0,1,1-.58,2.51,2.51,0,0,1,2.89.64,3.57,3.57,0,0,1,2.27-.84c1.6,0,1.92.94,1.92,1.33v2.58s0,.76,1,.82v.11H38V41.2a2.55,2.55,0,0,0,.61-.13c.49-.19.44-1.09.44-1.41,0,0,0-1.78,0-2s-.12-.92-1.34-1C36.14,36.67,36,38,36,38.61v1.51c-.05,1,.58,1,1,1.08v.11H33.91V41.2c.38-.09,1.12.11,1.05-1.54v-1c0-.5.16-1.92-1.34-1.88A1.64,1.64,0,0,0,32,38.68v1s-.07,1.08.29,1.27a1.69,1.69,0,0,0,.73.23v.11H29.83V41.2a2.55,2.55,0,0,0,.61-.13c.12,0,.48-.18.44-1.41V38.28c.08-1.65-.65-1.42-1-1.5v-.12Z"/><path class="cls-14" d="M0,41.17a1.5,1.5,0,0,0,1.31-.56,2.16,2.16,0,0,0,.18-1.13v-4a1.72,1.72,0,0,0-.25-1.17A1.67,1.67,0,0,0,0,33.8v-.13s5.32,0,5.56,0c5.23.48,4.88,4.54,4.33,5.54C9.48,40,9,41.31,5.25,41.31H0Zm3.05-7.33V39.4c0,.37,0,1,.37,1.32s.55.39,1.47.44a3.32,3.32,0,0,0,3.6-3.44c0-.56-.28-4-4.58-3.88Z"/><path class="cls-14" d="M21.11,41.3H16.45v-.13c.42,0,1.82-.07,1.12-1.38l-.8-1.56H13.64a11,11,0,0,0-.86,2.09c0,.67.86.85,1.14.85v.13H10.74v-.13c.25,0,.88,0,1.66-1.15.15-.23,3.17-6.35,3.17-6.35H16l3.09,5.88a3.62,3.62,0,0,0,1,1.38,3.07,3.07,0,0,0,1.05.24ZM16.65,38l-1.49-2.9L13.76,38Z"/><path class="cls-14" d="M25.18,41.31V39.73h.12c.1.36.67,1.69,1.91,1.56s1.07-1.09.79-1.42a4.15,4.15,0,0,0-1.31-.74c-.3-.12-1.4-.51-1.45-1.29s.54-1.34,1.67-1.37a2.61,2.61,0,0,1,1,.2.32.32,0,0,0,.4-.16h.14l.08,1.28h-.16a1.57,1.57,0,0,0-1.45-1.2.89.89,0,0,0-1,.79c0,.65,1.23,1,1.75,1.16S29,39.13,29.06,40s-.73,1.42-1.87,1.44a3.17,3.17,0,0,1-1.06-.16c-.57-.21-.76-.06-.85.06Z"/></g></g></svg>