<?xml version="1.0" encoding="UTF-8"?>
<svg width="20px" height="20px" viewBox="0 0 20 20" version="1.1" xmlns="http://www.w3.org/2000/svg" xmlns:xlink="http://www.w3.org/1999/xlink">
    <title>2</title>
    <g id="页面-1" stroke="none" stroke-width="1" fill="none" fill-rule="evenodd">
        <g id="画板" transform="translate(-1607.000000, -583.000000)">
            <g id="2" transform="translate(1607.000000, 583.000000)">
                <rect id="矩形" x="0" y="0" width="20" height="20"></rect>
                <g id="编组-2" transform="translate(2.000000, 9.000000)" stroke="#FFFFFF" stroke-linecap="round" stroke-linejoin="round" stroke-width="2">
                    <path d="M8,2 C8.5523,2 9,1.5523 9,1 C9,0.4477 8.5523,0 8,0 C7.4477,0 7,0.4477 7,1 C7,1.5523 7.4477,2 8,2 Z" id="路径"></path>
                    <path d="M15,2 C15.5523,2 16,1.5523 16,1 C16,0.4477 15.5523,0 15,0 C14.4477,0 14,0.4477 14,1 C14,1.5523 14.4477,2 15,2 Z" id="路径"></path>
                    <path d="M1,2 C1.55228,2 2,1.5523 2,1 C2,0.4477 1.55228,0 1,0 C0.44772,0 0,0.4477 0,1 C0,1.5523 0.44772,2 1,2 Z" id="路径"></path>
                </g>
            </g>
        </g>
    </g>
</svg>