<svg width="124" height="124" fill="none" xmlns="http://www.w3.org/2000/svg"><circle cx="62" cy="62" r="62" fill="url(#paint0_linear)"/><path d="M38.007 50.252a2.58 2.58 0 00-.007.184v43.89a2.676 2.676 0 005.35 0v-7.779a2.675 2.675 0 115.35 0v3.688a2.675 2.675 0 005.35 0v-3.688a2.675 2.675 0 015.35 0v1.007a2.675 2.675 0 105.349 0v-1.007a2.675 2.675 0 015.35 0v3.688a2.675 2.675 0 105.35 0v-3.688a2.675 2.675 0 015.35 0v7.778a2.675 2.675 0 005.35 0V50.436a2.61 2.61 0 00-.008-.184c-.295-13.04-10.957-23.519-24.067-23.519s-23.772 10.48-24.067 23.519zm28.66-1.06c0-2.713 1.918-4.912 4.284-4.912 2.366 0 4.284 2.2 4.284 4.912 0 2.712-1.918 4.911-4.284 4.911-2.366 0-4.283-2.199-4.283-4.911zm-17.753 0c0-2.713 1.918-4.912 4.283-4.912 2.366 0 4.284 2.2 4.284 4.912 0 2.712-1.918 4.911-4.284 4.911-2.365 0-4.283-2.199-4.283-4.911zm17.24 8.987c0 1.578-1.74 2.858-3.888 2.858-2.147 0-3.887-1.28-3.887-2.858s1.74-.626 3.887-.626c2.147 0 3.888-.952 3.888.626z" fill="#fff"/><defs><linearGradient id="paint0_linear" x1="-4.092" y1="118.42" x2="128.092" y2="27.776" gradientUnits="userSpaceOnUse"><stop stop-color="#2EBAC6"/><stop offset="1" stop-color="#B6509E"/></linearGradient></defs></svg>