<svg width="23" height="21" fill="none" xmlns="http://www.w3.org/2000/svg">
    <path fill-rule="evenodd" clip-rule="evenodd"
        d="M13.422 1.722C12.414-.02 9.897-.02 8.89 1.722L.355 16.487c-1.008 1.745.25 3.928 2.267 3.928H19.69c2.016 0 3.275-2.183 2.266-3.928L13.422 1.722z"
        fill="#F2C94C" />
    <path fill-rule="evenodd" clip-rule="evenodd"
        d="M11.18 5.018c.596 0 1.08.483 1.08 1.08V9.84c0 .511-.029 1.017-.085 1.517-.026.259-.057.523-.095.792a.901.901 0 01-.9.768.905.905 0 01-.901-.768 15.241 15.241 0 01-.178-2.309V6.097a1.08 1.08 0 011.08-1.079zm-1.388 11.01a1.3 1.3 0 01.393-.953 1.3 1.3 0 01.427-.287c.167-.073.348-.11.543-.11.19 0 .365.037.527.11.167.067.312.163.435.287.123.118.22.261.293.43.072.163.108.337.108.522a1.3 1.3 0 01-.108.531 1.43 1.43 0 01-.293.43c-.123.118-.268.21-.435.278a1.356 1.356 0 01-.527.102 1.37 1.37 0 01-.97-.38 1.43 1.43 0 01-.293-.43c-.067-.163-.1-.34-.1-.53z"
        fill="#000" />
</svg>